
<svg width="117" height="109" viewBox="0 0 117 109" fill="none" xmlns="http://www.w3.org/2000/svg">
<path opacity="0.2" d="M76.7812 6.8125L65.8125 17.0312H51.1875V20.4375H65.8125L76.7812 10.2188L87.75 20.4375H102.375V17.0312H87.75L76.7812 6.8125ZM51.1875 30.6562L40.2188 40.875L42.0469 42.5781L51.1875 34.0625V30.6562ZM102.375 30.6562V34.0625L111.516 42.5781L113.344 40.875L102.375 30.6562Z" fill="white"/>
<path opacity="0.2" d="M106.031 63.1971C106.031 75.9492 100.659 87.5322 91.9071 96.0886C82.5838 105.204 67.085 96.1033 52.5029 96.1033C37.6971 96.1033 26.7003 105.028 17.3541 95.6666C8.85475 87.1533 3.65625 75.7408 3.65625 63.1971C3.65625 36.8601 26.5737 15.5096 54.8438 15.5096C83.1138 15.5096 106.031 36.8601 106.031 63.1971Z" fill="#0D0D08"/>
<path d="M106.031 61.494C106.031 74.246 100.659 85.829 91.9071 94.3855C82.5838 103.501 67.085 94.4002 52.5029 94.4002C37.6971 94.4002 26.7003 103.325 17.3541 93.9634C8.85475 85.4502 3.65625 74.0377 3.65625 61.494C3.65625 35.1569 26.5737 13.8065 54.8438 13.8065C83.1138 13.8065 106.031 35.1569 106.031 61.494Z" fill="#0091CF"/>
<path opacity="0.1" d="M54.8438 13.8046C26.5737 13.8046 3.65625 35.155 3.65625 61.4921C3.65625 61.6873 3.67713 61.8782 3.68839 62.0709C4.33147 36.2548 26.9783 15.5078 54.8438 15.5078C82.7092 15.5078 105.356 36.2548 105.999 62.0709C106.011 61.8782 106.031 61.6875 106.031 61.4921C106.031 35.155 83.1138 13.8046 54.8438 13.8046Z" fill="white"/>
<path opacity="0.2" d="M76.7812 8.51562L65.8125 18.7344H51.1875V32.3594L40.2188 42.5781L51.1875 52.7969V66.4219H65.8125L76.7812 76.6406L87.75 66.4219H102.375V52.7969L113.344 42.5781L102.375 32.3594V18.7344H87.75L76.7812 8.51562Z" fill="#0D0D08"/>
<path d="M76.7812 6.8125L65.8125 17.0312H51.1875V30.6562L40.2188 40.875L51.1875 51.0938V64.7188H65.8125L76.7812 74.9375L87.75 64.7188H102.375V51.0938L113.344 40.875L102.375 30.6562V17.0312H87.75L76.7812 6.8125Z" fill="#FF8A47"/>
<path opacity="0.2" d="M76.7812 63.0156C88.897 63.0156 98.7188 53.8654 98.7188 42.5781C98.7188 31.2908 88.897 22.1406 76.7812 22.1406C64.6655 22.1406 54.8438 31.2908 54.8438 42.5781C54.8438 53.8654 64.6655 63.0156 76.7812 63.0156Z" fill="#0D0D08"/>
<path d="M76.7812 61.3125C88.897 61.3125 98.7188 52.1623 98.7188 40.875C98.7188 29.5877 88.897 20.4375 76.7812 20.4375C64.6655 20.4375 54.8438 29.5877 54.8438 40.875C54.8438 52.1623 64.6655 61.3125 76.7812 61.3125Z" fill="#FFCC42"/>
<path opacity="0.2" d="M55.8876 94.8896C67.4268 94.8896 76.7812 86.1748 76.7812 75.4246C76.7812 64.6744 67.4268 55.9596 55.8876 55.9596C44.3484 55.9596 34.994 64.6744 34.994 75.4246C34.994 86.1748 44.3484 94.8896 55.8876 94.8896Z" fill="black"/>
<path opacity="0.2" d="M54.8438 52.7969C49.0256 52.7969 43.4457 54.9501 39.3316 58.7829C35.2175 62.6157 32.9062 67.814 32.9062 73.2344C32.9097 73.5373 32.9205 73.84 32.9384 74.1425C31.1688 73.5482 29.3029 73.2411 27.4219 73.2344C23.0582 73.2344 18.8733 74.8493 15.7878 77.7239C12.7022 80.5985 10.9688 84.4972 10.9688 88.5625C10.9688 92.6278 12.7022 96.5265 15.7878 99.4011C18.8733 102.276 23.0582 103.891 27.4219 103.891H82.2656C86.6293 103.891 90.8142 102.276 93.8997 99.4011C96.9853 96.5265 98.7188 92.6278 98.7188 88.5625C98.7188 84.4972 96.9853 80.5985 93.8997 77.7239C90.8142 74.8493 86.6293 73.2344 82.2656 73.2344C80.3786 73.2392 78.5065 73.5463 76.7313 74.1425C76.7551 73.8402 76.7718 73.5374 76.7812 73.2344C76.7812 67.814 74.47 62.6157 70.3559 58.7829C66.2418 54.9501 60.6619 52.7969 54.8438 52.7969Z" fill="black"/>
<path d="M27.4219 102.188C36.5087 102.188 43.875 95.3249 43.875 86.8594C43.875 78.3939 36.5087 71.5312 27.4219 71.5312C18.3351 71.5312 10.9688 78.3939 10.9688 86.8594C10.9688 95.3249 18.3351 102.188 27.4219 102.188Z" fill="white"/>
<path d="M54.8438 91.9688C66.9595 91.9688 76.7812 82.8186 76.7812 71.5312C76.7812 60.2439 66.9595 51.0938 54.8438 51.0938C42.728 51.0938 32.9062 60.2439 32.9062 71.5312C32.9062 82.8186 42.728 91.9688 54.8438 91.9688Z" fill="white"/>
<path d="M82.2656 102.188C91.3524 102.188 98.7188 95.3249 98.7188 86.8594C98.7188 78.3939 91.3524 71.5312 82.2656 71.5312C73.1788 71.5312 65.8125 78.3939 65.8125 86.8594C65.8125 95.3249 73.1788 102.188 82.2656 102.188Z" fill="white"/>
<path d="M82.2656 81.75H27.4219V102.188H82.2656V81.75Z" fill="white"/>
<path opacity="0.2" d="M76.7812 20.4375C70.9631 20.4375 65.3832 22.5907 61.2691 26.4235C57.155 30.2563 54.8438 35.4546 54.8438 40.875C54.8527 41.1047 54.8658 41.3343 54.883 41.5636C55.1624 36.3273 57.5911 31.3913 61.6668 27.7762C65.7426 24.1611 71.1537 22.1435 76.7812 22.1406C82.4364 22.1472 87.8705 24.1881 91.9493 27.8374C96.0282 31.4868 98.4367 36.4626 98.6723 41.7266C98.6942 41.443 98.7096 41.1591 98.7188 40.875C98.7188 35.4546 96.4075 30.2563 92.2934 26.4235C88.1793 22.5907 82.5994 20.4375 76.7812 20.4375Z" fill="white"/>
<path opacity="0.2" d="M76.7812 6.8125L65.8125 17.0312H51.1875V18.7344H65.8125L76.7812 8.51562L87.75 18.7344H102.375V17.0312H87.75L76.7812 6.8125ZM51.1875 30.6562L40.2188 40.875L41.1328 41.7266L51.1875 32.3594V30.6562ZM102.375 30.6562V32.3594L112.43 41.7266L113.344 40.875L102.375 30.6562Z" fill="white"/>
</svg>
